<svg width="512" height="513" viewBox="0 0 512 513" fill="none" xmlns="http://www.w3.org/2000/svg">
<path d="M42.3164 203.263L248.094 334.225C250.445 335.961 253.223 336.816 256 336.816C258.778 336.816 261.556 335.961 263.907 334.225L469.685 203.263L264.014 45.6711C259.259 42.1186 252.742 42.1186 247.987 45.6711L42.3164 203.263Z" fill="#64B5F6"/>
<path d="M389.553 43H122.448C107.73 43 95.7373 54.993 95.7373 69.7105V363.526C95.7373 370.898 101.72 376.881 109.093 376.881H402.908C410.28 376.881 416.263 370.898 416.263 363.526V69.7105C416.263 54.993 404.297 43 389.553 43Z" fill="#ECEFF1"/>
<path d="M162.514 123.132H349.488C356.86 123.132 362.843 117.148 362.843 109.776C362.843 102.404 356.86 96.421 349.488 96.421H162.514C155.142 96.421 149.159 102.404 149.159 109.776C149.159 117.148 155.142 123.132 162.514 123.132Z" fill="#90A4AE"/>
<path d="M349.487 149.842H162.513C155.141 149.842 149.158 155.825 149.158 163.197C149.158 170.569 155.141 176.553 162.513 176.553H349.487C356.859 176.553 362.842 170.569 362.842 163.197C362.842 155.825 356.859 149.842 349.487 149.842Z" fill="#90A4AE"/>
<path d="M269.355 203.263H162.513C155.141 203.263 149.158 209.246 149.158 216.618C149.158 223.991 155.141 229.974 162.513 229.974H269.355C276.728 229.974 282.711 223.991 282.711 216.618C282.711 209.246 276.728 203.263 269.355 203.263Z" fill="#90A4AE"/>
<path d="M263.907 334.225C261.556 335.961 258.778 336.816 256 336.816C253.223 336.816 250.445 335.961 248.094 334.225L42.3164 203.263V443.658C42.3164 458.402 54.2827 470.368 69.0269 470.368H442.974C457.718 470.368 469.685 458.402 469.685 443.658V323.46V203.263L263.907 334.225Z" fill="#1E88E5"/>
<path d="M442.974 470.368H69.0269C54.0423 470.368 42.3164 458.642 42.3164 443.658C42.3164 439.411 44.3464 435.404 47.7654 432.893L248.094 299.341C250.445 297.604 253.223 296.75 256 296.75C258.778 296.75 261.556 297.604 263.907 299.341L464.236 432.893C467.655 435.404 469.685 439.411 469.685 443.658C469.685 458.642 457.959 470.368 442.974 470.368Z" fill="#2196F3"/>
</svg>
